<svg width="203" height="49" viewBox="0 0 203 49" fill="none" xmlns="http://www.w3.org/2000/svg">
    <path
        d="M32.6325 16.4507C32.6325 25.3418 25.3274 32.5494 16.3162 32.5494C7.30503 32.5494 0 25.3418 0 16.4507C0 7.55968 7.30503 0.352051 16.3162 0.352051C25.3274 0.352051 32.6325 7.55968 32.6325 16.4507Z"
        fill="#F1C369" />
    <mask id="mask0_1331_883" style="mask-type:alpha" maskUnits="userSpaceOnUse" x="0" y="0" width="33" height="33">
        <path
            d="M32.6325 16.4507C32.6325 25.3418 25.3274 32.5494 16.3162 32.5494C7.30503 32.5494 0 25.3418 0 16.4507C0 7.55968 7.30503 0.352051 16.3162 0.352051C25.3274 0.352051 32.6325 7.55968 32.6325 16.4507Z"
            fill="#C4C4C4" />
    </mask>
    <g mask="url(#mask0_1331_883)">
        <path
            d="M9.95217 8.18359C9.38961 8.18359 8.8501 8.40516 8.45231 8.79954C8.05453 9.19393 7.83105 9.72883 7.83105 10.2866V21.853C7.83105 25.407 10.0158 28.4353 13.1338 29.6761V42.8828C13.1338 43.7194 13.469 44.5218 14.0657 45.1133C14.6624 45.7049 15.4717 46.0373 16.3155 46.0373C17.1593 46.0373 17.9686 45.7049 18.5653 45.1133C19.162 44.5218 19.4972 43.7194 19.4972 42.8828V29.6761C22.6152 28.4353 24.7999 25.407 24.7999 21.853V10.2866C24.7999 9.72883 24.5765 9.19393 24.1787 8.79954C23.7809 8.40516 23.2414 8.18359 22.6788 8.18359C22.1163 8.18359 21.5768 8.40516 21.179 8.79954C20.7812 9.19393 20.5577 9.72883 20.5577 10.2866V18.6985C20.5577 18.9774 20.446 19.2448 20.2471 19.442C20.0482 19.6392 19.7784 19.75 19.4972 19.75C19.2159 19.75 18.9461 19.6392 18.7472 19.442C18.5483 19.2448 18.4366 18.9774 18.4366 18.6985V10.2866C18.4366 9.72883 18.2131 9.19393 17.8153 8.79954C17.4176 8.40516 16.878 8.18359 16.3155 8.18359C15.7529 8.18359 15.2134 8.40516 14.8156 8.79954C14.4179 9.19393 14.1944 9.72883 14.1944 10.2866V18.6985C14.1944 18.9774 14.0826 19.2448 13.8838 19.442C13.6849 19.6392 13.4151 19.75 13.1338 19.75C12.8526 19.75 12.5828 19.6392 12.3839 19.442C12.185 19.2448 12.0733 18.9774 12.0733 18.6985V10.2866C12.0733 9.72883 11.8498 9.19393 11.452 8.79954C11.0542 8.40516 10.5147 8.18359 9.95217 8.18359Z"
            fill="#F8F8F8" />
    </g>
    <path
        d="M49.9997 32.5494C49.9997 41.4404 42.6946 48.6481 33.6834 48.6481C24.6722 48.6481 17.3672 41.4404 17.3672 32.5494C17.3672 23.6583 24.6722 16.4507 33.6834 16.4507C42.6946 16.4507 49.9997 23.6583 49.9997 32.5494Z"
        fill="#F18669" />
    <mask id="mask1_1331_883" style="mask-type:alpha" maskUnits="userSpaceOnUse" x="17" y="16" width="33" height="33">
        <path
            d="M49.9997 32.5494C49.9997 41.4404 42.6946 48.6481 33.6834 48.6481C24.6722 48.6481 17.3672 41.4404 17.3672 32.5494C17.3672 23.6583 24.6722 16.4507 33.6834 16.4507C42.6946 16.4507 49.9997 23.6583 49.9997 32.5494Z"
            fill="#C4C4C4" />
    </mask>
    <g mask="url(#mask1_1331_883)">
        <path
            d="M39.9157 24.2993C39.6442 24.2993 39.3727 24.4885 39.1221 24.6356L31.8124 29.0289V36.9117H23.4585V41.1158H25.547L27.6354 62.1364H40.1663L42.2548 41.1158H44.3433V36.9117H35.9894V31.3202L41.2106 28.1671C42.2548 27.5785 42.5263 26.4014 41.9206 25.3503C41.4821 24.5936 40.7093 24.1942 39.9157 24.2993Z"
            fill="#F8F8F8" />
    </g>
    <path
        d="M69.8261 33.5L65.3141 22.052V33.5H62.0021V16.268H66.3701L71.3621 29.036L76.3781 16.268H80.7461V33.5H77.4341V21.956L72.8741 33.5H69.8261ZM87.3157 33.5H83.9797V20.684H87.3157V33.5ZM87.8437 17.708C87.8437 18.268 87.6357 18.74 87.2197 19.124C86.8197 19.492 86.2837 19.676 85.6117 19.676C84.9557 19.676 84.4197 19.492 84.0037 19.124C83.6037 18.74 83.4037 18.268 83.4037 17.708C83.4037 17.116 83.6037 16.636 84.0037 16.268C84.4197 15.884 84.9557 15.692 85.6117 15.692C86.2837 15.692 86.8197 15.884 87.2197 16.268C87.6357 16.636 87.8437 17.116 87.8437 17.708ZM89.4444 27.092C89.4444 25.828 89.6764 24.692 90.1404 23.684C90.6204 22.676 91.2844 21.884 92.1324 21.308C92.9964 20.732 93.9964 20.444 95.1324 20.444C95.9004 20.444 96.6044 20.604 97.2444 20.924C97.8844 21.244 98.4444 21.716 98.9244 22.34V16.268H102.236V33.5H99.1884V31.652C98.6764 32.308 98.0764 32.82 97.3884 33.188C96.7164 33.556 95.9644 33.74 95.1324 33.74C93.9964 33.74 92.9964 33.452 92.1324 32.876C91.2844 32.284 90.6204 31.484 90.1404 30.476C89.6764 29.468 89.4444 28.34 89.4444 27.092ZM92.8764 27.092C92.8764 28.292 93.1724 29.204 93.7644 29.828C94.3564 30.452 95.0604 30.764 95.8764 30.764C96.4364 30.764 96.9404 30.62 97.3884 30.332C97.8524 30.044 98.2204 29.628 98.4924 29.084C98.7644 28.524 98.9004 27.844 98.9004 27.044C98.9004 26.244 98.7564 25.572 98.4684 25.028C98.1964 24.484 97.8284 24.076 97.3644 23.804C96.9164 23.532 96.4204 23.396 95.8764 23.396C95.0604 23.396 94.3564 23.708 93.7644 24.332C93.1724 24.94 92.8764 25.86 92.8764 27.092ZM108.55 33.5H105.214V20.684H108.55V33.5ZM109.078 17.708C109.078 18.268 108.87 18.74 108.454 19.124C108.054 19.492 107.518 19.676 106.846 19.676C106.19 19.676 105.654 19.492 105.238 19.124C104.838 18.74 104.638 18.268 104.638 17.708C104.638 17.116 104.838 16.636 105.238 16.268C105.654 15.884 106.19 15.692 106.846 15.692C107.518 15.692 108.054 15.884 108.454 16.268C108.87 16.636 109.078 17.116 109.078 17.708ZM115.455 33.5H111.807V16.268H122.943V19.436H115.455V23.78H121.767V26.924H115.455V33.5ZM128.308 27.284V33.5H124.972V20.684H128.044V23.156C128.524 22.34 129.22 21.7 130.132 21.236C131.044 20.772 132.012 20.54 133.036 20.54V23.996C132.108 23.932 131.284 23.98 130.564 24.14C129.86 24.284 129.308 24.612 128.908 25.124C128.508 25.62 128.308 26.34 128.308 27.284ZM138.105 33.5H134.769V20.684H138.105V33.5ZM138.633 17.708C138.633 18.268 138.425 18.74 138.009 19.124C137.609 19.492 137.073 19.676 136.401 19.676C135.745 19.676 135.209 19.492 134.793 19.124C134.393 18.74 134.193 18.268 134.193 17.708C134.193 17.116 134.393 16.636 134.793 16.268C135.209 15.884 135.745 15.692 136.401 15.692C137.073 15.692 137.609 15.884 138.009 16.268C138.425 16.636 138.633 17.116 138.633 17.708ZM146.641 33.716C145.361 33.716 144.233 33.444 143.257 32.9C142.297 32.34 141.553 31.556 141.025 30.548C140.497 29.54 140.233 28.372 140.233 27.044C140.233 25.764 140.505 24.628 141.049 23.636C141.593 22.644 142.345 21.868 143.305 21.308C144.265 20.732 145.361 20.444 146.593 20.444C147.601 20.444 148.513 20.636 149.329 21.02C150.161 21.388 150.857 21.916 151.417 22.604C151.977 23.292 152.377 24.092 152.617 25.004C152.857 25.9 152.897 26.868 152.737 27.908H142.201V25.796H149.209C149.177 24.9 148.913 24.196 148.417 23.684C147.937 23.156 147.305 22.892 146.521 22.892C145.897 22.892 145.369 23.052 144.937 23.372C144.505 23.692 144.169 24.164 143.929 24.788C143.705 25.396 143.593 26.148 143.593 27.044C143.593 27.924 143.705 28.668 143.929 29.276C144.153 29.884 144.489 30.348 144.937 30.668C145.385 30.988 145.929 31.148 146.569 31.148C147.305 31.148 147.913 30.972 148.393 30.62C148.873 30.268 149.209 29.78 149.401 29.156H152.713C152.345 30.596 151.633 31.716 150.577 32.516C149.521 33.316 148.209 33.716 146.641 33.716ZM158.308 26.516V33.5H154.972V20.684H158.044V22.508C158.524 21.868 159.084 21.364 159.724 20.996C160.38 20.628 161.132 20.444 161.98 20.444C163.276 20.444 164.324 20.86 165.124 21.692C165.924 22.508 166.324 23.684 166.324 25.22V33.5H163.012V26.348C163.012 25.388 162.82 24.66 162.436 24.164C162.068 23.652 161.508 23.396 160.756 23.396C160.308 23.396 159.892 23.516 159.508 23.756C159.14 23.98 158.844 24.324 158.62 24.788C158.412 25.236 158.308 25.812 158.308 26.516ZM168.358 27.092C168.358 25.828 168.59 24.692 169.054 23.684C169.534 22.676 170.198 21.884 171.046 21.308C171.91 20.732 172.91 20.444 174.046 20.444C174.814 20.444 175.518 20.604 176.158 20.924C176.798 21.244 177.358 21.716 177.838 22.34V16.268H181.15V33.5H178.102V31.652C177.59 32.308 176.99 32.82 176.302 33.188C175.63 33.556 174.878 33.74 174.046 33.74C172.91 33.74 171.91 33.452 171.046 32.876C170.198 32.284 169.534 31.484 169.054 30.476C168.59 29.468 168.358 28.34 168.358 27.092ZM171.79 27.092C171.79 28.292 172.086 29.204 172.678 29.828C173.27 30.452 173.974 30.764 174.79 30.764C175.35 30.764 175.854 30.62 176.302 30.332C176.766 30.044 177.134 29.628 177.406 29.084C177.678 28.524 177.814 27.844 177.814 27.044C177.814 26.244 177.67 25.572 177.382 25.028C177.11 24.484 176.742 24.076 176.278 23.804C175.83 23.532 175.334 23.396 174.79 23.396C173.974 23.396 173.27 23.708 172.678 24.332C172.086 24.94 171.79 25.86 171.79 27.092ZM187.488 33.5H184.128V16.268H187.488V33.5ZM202.024 20.684L195.784 38.132H192.16L193.984 33.356L188.944 20.684H192.544L195.76 29.468L198.688 20.684H202.024Z"
        fill="#171717" />
</svg>